# Blender v2.69 (sub 0) OBJ File: 'Ring.blend'
# www.blender.org
mtllib Ring.mtl
o Circle
v 0.000000 0.000000 -1.000000
v -0.195090 0.000000 -0.980785
v -0.382683 0.000000 -0.923880
v -0.555570 0.000000 -0.831470
v -0.707107 0.000000 -0.707107
v -0.831470 0.000000 -0.555570
v -0.923880 0.000000 -0.382683
v -0.980785 0.000000 -0.195090
v -1.000000 0.000000 -0.000000
v -0.980785 0.000000 0.195090
v -0.923880 0.000000 0.382683
v -0.831470 0.000000 0.555570
v -0.707107 0.000000 0.707107
v -0.555570 0.000000 0.831470
v -0.382683 0.000000 0.923880
v -0.195090 0.000000 0.980785
v 0.000000 0.000000 1.000000
v 0.195091 0.000000 0.980785
v 0.382684 0.000000 0.923879
v 0.555571 0.000000 0.831469
v 0.707107 0.000000 0.707106
v 0.831470 0.000000 0.555570
v 0.923880 0.000000 0.382683
v 0.980785 0.000000 0.195089
v 1.000000 0.000000 -0.000001
v 0.980785 0.000000 -0.195091
v 0.923879 0.000000 -0.382684
v 0.831469 0.000000 -0.555571
v 0.707106 0.000000 -0.707108
v 0.555569 0.000000 -0.831470
v 0.382682 0.000000 -0.923880
v 0.195089 0.000000 -0.980786
v 0.000000 -0.170769 -1.000000
v -0.195090 -0.170769 -0.980785
v -0.382683 -0.170769 -0.923880
v -0.555570 -0.170769 -0.831470
v -0.707107 -0.170769 -0.707107
v -0.831470 -0.170769 -0.555570
v -0.923880 -0.170769 -0.382683
v -0.980785 -0.170769 -0.195090
v -1.000000 -0.170769 -0.000000
v -0.980785 -0.170769 0.195090
v -0.923880 -0.170769 0.382683
v -0.831470 -0.170769 0.555570
v -0.707107 -0.170769 0.707107
v -0.555570 -0.170769 0.831470
v -0.382683 -0.170769 0.923880
v -0.195090 -0.170769 0.980785
v 0.000000 -0.170769 1.000000
v 0.195091 -0.170769 0.980785
v 0.382684 -0.170769 0.923879
v 0.555571 -0.170769 0.831469
v 0.707107 -0.170769 0.707106
v 0.831470 -0.170769 0.555570
v 0.923880 -0.170769 0.382683
v 0.980785 -0.170769 0.195089
v 1.000000 -0.170769 -0.000001
v 0.980785 -0.170769 -0.195091
v 0.923879 -0.170769 -0.382684
v 0.831469 -0.170769 -0.555571
v 0.707106 -0.170769 -0.707108
v 0.555569 -0.170769 -0.831470
v 0.382682 -0.170769 -0.923880
v 0.195089 -0.170769 -0.980786
v -0.000000 -0.009633 -0.887184
v -0.173081 -0.009633 -0.870137
v -0.339511 -0.009633 -0.819651
v -0.492893 -0.009633 -0.737666
v -0.627334 -0.009633 -0.627334
v -0.737666 -0.009633 -0.492893
v -0.819651 -0.009633 -0.339511
v -0.870137 -0.009633 -0.173081
v -0.887184 -0.009633 -0.000000
v -0.870137 -0.009633 0.173081
v -0.819651 -0.009633 0.339510
v -0.737666 -0.009633 0.492893
v -0.627334 -0.009633 0.627334
v -0.492893 -0.009633 0.737666
v -0.339510 -0.009633 0.819651
v -0.173081 -0.009633 0.870137
v 0.000000 -0.009633 0.887184
v 0.173081 -0.009633 0.870137
v 0.339511 -0.009633 0.819651
v 0.492893 -0.009633 0.737666
v 0.627334 -0.009633 0.627333
v 0.737667 -0.009633 0.492892
v 0.819651 -0.009633 0.339510
v 0.870137 -0.009633 0.173080
v 0.887184 -0.009633 -0.000001
v 0.870136 -0.009633 -0.173082
v 0.819650 -0.009633 -0.339511
v 0.737666 -0.009633 -0.492894
v 0.627333 -0.009633 -0.627334
v 0.492892 -0.009633 -0.737667
v 0.339509 -0.009633 -0.819651
v 0.173080 -0.009633 -0.870137
v -0.000000 -0.161136 -0.887184
v -0.173081 -0.161136 -0.870137
v -0.339511 -0.161136 -0.819651
v -0.492893 -0.161136 -0.737666
v -0.627334 -0.161136 -0.627334
v -0.737666 -0.161136 -0.492893
v -0.819651 -0.161136 -0.339511
v -0.870137 -0.161136 -0.173081
v -0.887184 -0.161136 -0.000000
v -0.870137 -0.161136 0.173081
v -0.819651 -0.161136 0.339510
v -0.737666 -0.161136 0.492893
v -0.627334 -0.161136 0.627334
v -0.492893 -0.161136 0.737666
v -0.339510 -0.161136 0.819651
v -0.173081 -0.161136 0.870137
v 0.000000 -0.161136 0.887184
v 0.173081 -0.161136 0.870137
v 0.339511 -0.161136 0.819651
v 0.492893 -0.161136 0.737666
v 0.627334 -0.161136 0.627333
v 0.737667 -0.161136 0.492892
v 0.819651 -0.161136 0.339510
v 0.870137 -0.161136 0.173080
v 0.887184 -0.161136 -0.000001
v 0.870136 -0.161136 -0.173082
v 0.819650 -0.161136 -0.339511
v 0.737666 -0.161136 -0.492894
v 0.627333 -0.161136 -0.627334
v 0.492892 -0.161136 -0.737667
v 0.339509 -0.161136 -0.819651
v 0.173080 -0.161136 -0.870137
vt 0.000000 0.000000
vt 1.000000 0.000000
vt 0.000000 1.000000
vt 1.000000 1.000000
vn 0.646565 0.714286 -0.267800
vn 0.646565 -0.714286 -0.267800
vn 0.581896 0.714286 -0.388806
vn -0.494858 0.714286 -0.494858
vn -0.494858 -0.714286 -0.494858
vn -0.581896 0.714286 -0.388806
vn -0.136509 0.714286 0.686392
vn -0.136509 -0.714286 0.686392
vn 0.000000 0.714286 0.699850
vn 0.699850 0.714286 0.000000
vn 0.699850 -0.714286 0.000000
vn 0.686392 0.714286 -0.136509
vn -0.267800 0.714286 -0.646565
vn -0.267800 -0.714286 -0.646565
vn -0.388806 0.714286 -0.581896
vn -0.388806 0.714286 0.581896
vn -0.388806 -0.714286 0.581896
vn -0.267800 0.714286 0.646565
vn 0.646565 0.714286 0.267800
vn 0.646565 -0.714286 0.267800
vn 0.686392 0.714286 0.136509
vn 0.000000 0.714286 -0.699850
vn 0.000000 -0.714286 -0.699850
vn -0.136509 0.714286 -0.686392
vn -0.581896 0.714286 0.388806
vn -0.581896 -0.714286 0.388806
vn -0.494858 0.714286 0.494858
vn 0.136509 0.714286 -0.686392
vn 0.136509 -0.714286 -0.686392
vn 0.494858 0.714286 0.494858
vn 0.494858 -0.714286 0.494858
vn 0.581896 0.714286 0.388806
vn -0.686392 0.714286 0.136509
vn -0.686392 -0.714286 0.136509
vn -0.646565 0.714286 0.267800
vn 0.388806 0.714286 -0.581896
vn 0.388806 -0.714286 -0.581896
vn 0.267800 0.714286 -0.646565
vn 0.267800 0.714286 0.646565
vn 0.267800 -0.714286 0.646565
vn 0.388806 0.714286 0.581896
vn -0.686392 0.714286 -0.136509
vn -0.686392 -0.714286 -0.136509
vn -0.699850 0.714286 0.000000
vn 0.581896 -0.714286 -0.388806
vn 0.494858 0.714286 -0.494858
vn 0.000000 -0.714286 0.699850
vn 0.136509 0.714286 0.686392
vn -0.581896 -0.714286 -0.388806
vn -0.646565 0.714286 -0.267800
vn 0.686392 -0.714286 -0.136509
vn -0.388806 -0.714286 -0.581896
vn -0.267800 -0.714286 0.646565
vn 0.686392 -0.714286 0.136509
vn -0.136509 -0.714286 -0.686392
vn -0.494858 -0.714286 0.494858
vn 0.581896 -0.714286 0.388806
vn -0.646565 -0.714286 0.267800
vn 0.267800 -0.714286 -0.646565
vn 0.388806 -0.714286 0.581896
vn -0.699850 -0.714286 0.000000
vn 0.494858 -0.714286 -0.494858
vn 0.136509 -0.714286 0.686392
vn -0.646565 -0.714286 -0.267800
vn -0.661489 0.698080 0.273995
vn -0.595325 0.698080 0.397778
vn -0.661489 -0.698080 0.273995
vn 0.506272 0.698080 0.506272
vn 0.595325 0.698080 0.397778
vn 0.506272 -0.698080 0.506272
vn 0.139683 0.698080 -0.702231
vn 0.000000 0.698080 -0.715995
vn 0.139683 -0.698080 -0.702231
vn -0.715995 0.698080 0.000000
vn -0.702231 0.698080 0.139683
vn -0.715995 -0.698080 0.000000
vn 0.273995 0.698080 0.661489
vn 0.397778 0.698080 0.595325
vn 0.273995 -0.698080 0.661489
vn 0.397778 0.698080 -0.595325
vn 0.273995 0.698080 -0.661489
vn 0.397778 -0.698080 -0.595325
vn -0.661489 0.698080 -0.273995
vn -0.702231 0.698080 -0.139683
vn -0.661489 -0.698080 -0.273995
vn 0.000000 0.698080 0.715995
vn 0.139683 0.698080 0.702231
vn 0.000000 -0.698080 0.715995
vn 0.595325 0.698080 -0.397778
vn 0.506272 0.698080 -0.506272
vn 0.595325 -0.698080 -0.397778
vn -0.139683 0.698080 0.702231
vn -0.139683 -0.698080 0.702231
vn -0.506272 0.698080 -0.506272
vn -0.595325 0.698080 -0.397778
vn -0.506272 -0.698080 -0.506272
vn 0.702231 0.698080 -0.139683
vn 0.661489 0.698080 -0.273995
vn 0.702231 -0.698080 -0.139683
vn -0.397778 0.698080 0.595325
vn -0.273995 0.698080 0.661489
vn -0.397778 -0.698080 0.595325
vn -0.273995 0.698080 -0.661489
vn -0.397778 0.698080 -0.595325
vn -0.273995 -0.698080 -0.661489
vn 0.702231 0.698080 0.139683
vn 0.715995 0.698080 0.000000
vn 0.702231 -0.698080 0.139683
vn -0.506272 0.698080 0.506272
vn -0.595325 -0.698080 0.397778
vn -0.139683 0.698080 -0.702231
vn 0.000000 -0.698080 -0.715995
vn 0.661489 0.698080 0.273995
vn 0.595325 -0.698080 0.397778
vn -0.702231 -0.698080 0.139683
vn 0.397778 -0.698080 0.595325
vn 0.273995 -0.698080 -0.661489
vn -0.702231 -0.698080 -0.139683
vn 0.139683 -0.698080 0.702231
vn 0.506272 -0.698080 -0.506272
vn -0.595325 -0.698080 -0.397778
vn 0.661489 -0.698080 -0.273995
vn -0.273995 -0.698080 0.661489
vn -0.397778 -0.698080 -0.595325
vn 0.715995 -0.698080 0.000000
vn -0.506272 -0.698080 0.506272
vn -0.139683 -0.698080 -0.702231
vn 0.661489 -0.698080 0.273995
usemtl None
s 1
f 27/1/1 59/2/2 28/3/3
f 5/1/4 37/2/5 6/3/6
f 16/1/7 48/2/8 17/3/9
f 25/1/10 57/2/11 26/3/12
f 3/1/13 35/2/14 4/3/15
f 14/1/16 46/2/17 15/3/18
f 23/1/19 55/2/20 24/3/21
f 1/1/22 33/2/23 2/3/24
f 12/1/25 44/2/26 13/3/27
f 32/1/28 64/2/29 1/3/22
f 21/1/30 53/2/31 22/3/32
f 10/1/33 42/2/34 11/3/35
f 30/1/36 62/2/37 31/3/38
f 19/1/39 51/2/40 20/3/41
f 8/1/42 40/2/43 9/3/44
f 28/1/3 60/2/45 29/3/46
f 17/1/9 49/2/47 18/3/48
f 6/1/6 38/2/49 7/3/50
f 26/1/12 58/2/51 27/3/1
f 4/1/15 36/2/52 5/3/4
f 15/1/18 47/2/53 16/3/7
f 24/1/21 56/2/54 25/3/10
f 2/1/24 34/2/55 3/3/13
f 13/1/27 45/2/56 14/3/16
f 22/1/32 54/2/57 23/3/19
f 11/1/35 43/2/58 12/3/25
f 31/1/38 63/2/59 32/3/28
f 20/1/41 52/2/60 21/3/30
f 9/1/44 41/2/61 10/3/33
f 29/1/46 61/2/62 30/3/36
f 18/1/48 50/2/63 19/3/39
f 7/1/50 39/2/64 8/3/42
f 91/1/65 92/2/66 123/3/67
f 69/1/68 70/2/69 101/3/70
f 80/1/71 81/2/72 112/3/73
f 89/1/74 90/2/75 121/3/76
f 67/1/77 68/2/78 99/3/79
f 78/1/80 79/2/81 110/3/82
f 87/1/83 88/2/84 119/3/85
f 65/1/86 66/2/87 97/3/88
f 76/1/89 77/2/90 108/3/91
f 96/1/92 65/2/86 128/3/93
f 85/1/94 86/2/95 117/3/96
f 74/1/97 75/2/98 106/3/99
f 94/1/100 95/2/101 126/3/102
f 83/1/103 84/2/104 115/3/105
f 72/1/106 73/2/107 104/3/108
f 92/1/66 93/2/109 124/3/110
f 81/1/72 82/2/111 113/3/112
f 70/1/69 71/2/113 102/3/114
f 90/1/75 91/2/65 122/3/115
f 68/1/78 69/2/68 100/3/116
f 79/1/81 80/2/71 111/3/117
f 88/1/84 89/2/74 120/3/118
f 66/1/87 67/2/77 98/3/119
f 77/1/90 78/2/80 109/3/120
f 86/1/95 87/2/83 118/3/121
f 75/1/98 76/2/89 107/3/122
f 95/1/101 96/2/92 127/3/123
f 84/1/104 85/2/94 116/3/124
f 73/1/107 74/2/97 105/3/125
f 93/1/109 94/2/100 125/3/126
f 82/1/111 83/2/103 114/3/127
f 71/1/113 72/2/106 103/3/128
f 40/1/43 39/2/64 104/3/108
f 2/1/24 3/2/13 66/3/87
f 55/1/20 54/2/57 119/3/85
f 17/1/9 18/2/48 81/3/72
f 32/1/28 1/2/22 96/3/92
f 10/1/33 11/2/35 74/3/97
f 48/1/8 47/2/53 112/3/73
f 63/1/59 62/2/37 127/3/123
f 25/1/10 26/2/12 89/3/74
f 3/1/13 4/2/15 67/3/77
f 41/1/61 40/2/43 105/3/125
f 56/1/54 55/2/20 120/3/118
f 18/1/48 19/2/39 82/3/111
f 34/1/55 33/2/23 98/3/119
f 11/1/35 12/2/25 75/3/98
f 49/1/47 48/2/8 113/3/112
f 64/1/29 63/2/59 128/3/93
f 26/1/12 27/2/1 90/3/75
f 4/1/15 5/2/4 68/3/78
f 42/1/34 41/2/61 106/3/99
f 57/1/11 56/2/54 121/3/76
f 19/1/39 20/2/41 83/3/103
f 35/1/14 34/2/55 99/3/79
f 12/1/25 13/2/27 76/3/89
f 50/1/63 49/2/47 114/3/127
f 33/1/23 64/2/29 97/3/88
f 27/1/1 28/2/3 91/3/65
f 5/1/4 6/2/6 69/3/68
f 43/1/58 42/2/34 107/3/122
f 58/1/51 57/2/11 122/3/115
f 20/1/41 21/2/30 84/3/104
f 36/1/52 35/2/14 100/3/116
f 13/1/27 14/2/16 77/3/90
f 51/1/40 50/2/63 115/3/105
f 28/1/3 29/2/46 93/4/109
f 6/1/6 7/2/50 70/3/69
f 44/1/26 43/2/58 108/3/91
f 59/1/2 58/2/51 123/3/67
f 21/1/30 22/2/32 85/3/94
f 37/1/5 36/2/52 101/3/70
f 14/1/16 15/2/18 78/3/80
f 52/1/60 51/2/40 116/3/124
f 29/1/46 30/2/36 93/3/109
f 7/1/50 8/2/42 71/3/113
f 45/1/56 44/2/26 109/3/120
f 60/1/45 59/2/2 124/3/110
f 22/1/32 23/2/19 86/3/95
f 38/1/49 37/2/5 102/3/114
f 15/1/18 16/2/7 79/3/81
f 53/1/31 52/2/60 117/3/96
f 30/1/36 31/2/38 94/3/100
f 8/1/42 9/2/44 72/3/106
f 46/1/17 45/2/56 110/3/82
f 61/1/62 60/2/45 125/3/126
f 23/1/19 24/2/21 87/3/83
f 1/1/22 2/2/24 65/3/86
f 39/1/64 38/2/49 103/3/128
f 54/1/57 53/2/31 118/3/121
f 16/1/7 17/2/9 80/3/71
f 31/1/38 32/2/28 95/3/101
f 47/1/53 46/2/17 111/3/117
f 9/1/44 10/2/33 73/3/107
f 62/1/37 61/2/62 126/3/102
f 24/1/21 25/2/10 88/3/84
f 59/2/2 60/4/45 28/3/3
f 37/2/5 38/4/49 6/3/6
f 48/2/8 49/4/47 17/3/9
f 57/2/11 58/4/51 26/3/12
f 35/2/14 36/4/52 4/3/15
f 46/2/17 47/4/53 15/3/18
f 55/2/20 56/4/54 24/3/21
f 33/2/23 34/4/55 2/3/24
f 44/2/26 45/4/56 13/3/27
f 64/2/29 33/4/23 1/3/22
f 53/2/31 54/4/57 22/3/32
f 42/2/34 43/4/58 11/3/35
f 62/2/37 63/4/59 31/3/38
f 51/2/40 52/4/60 20/3/41
f 40/2/43 41/4/61 9/3/44
f 60/2/45 61/4/62 29/3/46
f 49/2/47 50/4/63 18/3/48
f 38/2/49 39/4/64 7/3/50
f 58/2/51 59/4/2 27/3/1
f 36/2/52 37/4/5 5/3/4
f 47/2/53 48/4/8 16/3/7
f 56/2/54 57/4/11 25/3/10
f 34/2/55 35/4/14 3/3/13
f 45/2/56 46/4/17 14/3/16
f 54/2/57 55/4/20 23/3/19
f 43/2/58 44/4/26 12/3/25
f 63/2/59 64/4/29 32/3/28
f 52/2/60 53/4/31 21/3/30
f 41/2/61 42/4/34 10/3/33
f 61/2/62 62/4/37 30/3/36
f 50/2/63 51/4/40 19/3/39
f 39/2/64 40/4/43 8/3/42
f 92/2/66 124/4/110 123/3/67
f 70/2/69 102/4/114 101/3/70
f 81/2/72 113/4/112 112/3/73
f 90/2/75 122/4/115 121/3/76
f 68/2/78 100/4/116 99/3/79
f 79/2/81 111/4/117 110/3/82
f 88/2/84 120/4/118 119/3/85
f 66/2/87 98/4/119 97/3/88
f 77/2/90 109/4/120 108/3/91
f 65/2/86 97/4/88 128/3/93
f 86/2/95 118/4/121 117/3/96
f 75/2/98 107/4/122 106/3/99
f 95/2/101 127/4/123 126/3/102
f 84/2/104 116/4/124 115/3/105
f 73/2/107 105/4/125 104/3/108
f 93/2/109 125/4/126 124/3/110
f 82/2/111 114/4/127 113/3/112
f 71/2/113 103/4/128 102/3/114
f 91/2/65 123/4/67 122/3/115
f 69/2/68 101/4/70 100/3/116
f 80/2/71 112/4/73 111/3/117
f 89/2/74 121/4/76 120/3/118
f 67/2/77 99/4/79 98/3/119
f 78/2/80 110/4/82 109/3/120
f 87/2/83 119/4/85 118/3/121
f 76/2/89 108/4/91 107/3/122
f 96/2/92 128/4/93 127/3/123
f 85/2/94 117/4/96 116/3/124
f 74/2/97 106/4/99 105/3/125
f 94/2/100 126/4/102 125/3/126
f 83/2/103 115/4/105 114/3/127
f 72/2/106 104/4/108 103/3/128
f 39/2/64 103/4/128 104/3/108
f 3/2/13 67/4/77 66/3/87
f 54/2/57 118/4/121 119/3/85
f 18/2/48 82/4/111 81/3/72
f 1/2/22 65/4/86 96/3/92
f 11/2/35 75/4/98 74/3/97
f 47/2/53 111/4/117 112/3/73
f 62/2/37 126/4/102 127/3/123
f 26/2/12 90/4/75 89/3/74
f 4/2/15 68/4/78 67/3/77
f 40/2/43 104/4/108 105/3/125
f 55/2/20 119/4/85 120/3/118
f 19/2/39 83/4/103 82/3/111
f 33/2/23 97/4/88 98/3/119
f 12/2/25 76/4/89 75/3/98
f 48/2/8 112/4/73 113/3/112
f 63/2/59 127/4/123 128/3/93
f 27/2/1 91/4/65 90/3/75
f 5/2/4 69/4/68 68/3/78
f 41/2/61 105/4/125 106/3/99
f 56/2/54 120/4/118 121/3/76
f 20/2/41 84/4/104 83/3/103
f 34/2/55 98/4/119 99/3/79
f 13/2/27 77/4/90 76/3/89
f 49/2/47 113/4/112 114/3/127
f 64/2/29 128/4/93 97/3/88
f 28/2/3 92/4/66 91/3/65
f 6/2/6 70/4/69 69/3/68
f 42/2/34 106/4/99 107/3/122
f 57/2/11 121/4/76 122/3/115
f 21/2/30 85/4/94 84/3/104
f 35/2/14 99/4/79 100/3/116
f 14/2/16 78/4/80 77/3/90
f 50/2/63 114/4/127 115/3/105
f 92/3/66 28/1/3 93/4/109
f 7/2/50 71/4/113 70/3/69
f 43/2/58 107/4/122 108/3/91
f 58/2/51 122/4/115 123/3/67
f 22/2/32 86/4/95 85/3/94
f 36/2/52 100/4/116 101/3/70
f 15/2/18 79/4/81 78/3/80
f 51/2/40 115/4/105 116/3/124
f 30/2/36 94/4/100 93/3/109
f 8/2/42 72/4/106 71/3/113
f 44/2/26 108/4/91 109/3/120
f 59/2/2 123/4/67 124/3/110
f 23/2/19 87/4/83 86/3/95
f 37/2/5 101/4/70 102/3/114
f 16/2/7 80/4/71 79/3/81
f 52/2/60 116/4/124 117/3/96
f 31/2/38 95/4/101 94/3/100
f 9/2/44 73/4/107 72/3/106
f 45/2/56 109/4/120 110/3/82
f 60/2/45 124/4/110 125/3/126
f 24/2/21 88/4/84 87/3/83
f 2/2/24 66/4/87 65/3/86
f 38/2/49 102/4/114 103/3/128
f 53/2/31 117/4/96 118/3/121
f 17/2/9 81/4/72 80/3/71
f 32/2/28 96/4/92 95/3/101
f 46/2/17 110/4/82 111/3/117
f 10/2/33 74/4/97 73/3/107
f 61/2/62 125/4/126 126/3/102
f 25/2/10 89/4/74 88/3/84
